<svg viewBox="0 0 512 512" xmlns="http://www.w3.org/2000/svg">
  <circle cx="256" cy="256" r="256" fill="#0b1320"/>
  <g transform="translate(256, 256)">
    <mask id="m"><rect x="-200" y="-200" width="400" height="400" fill="black"/><circle cx="0" cy="0" r="135" fill="white"/><circle cx="62" cy="-32" r="108" fill="black"/></mask>
    <circle cx="0" cy="0" r="135" fill="#c9a84c" mask="url(#m)"/>
    <g fill="#c9a84c">
      <rect x="0" y="-5.5" width="20" height="11" rx="2.5" transform="rotate(-62, 0, 0) translate(131, 0)"/>
      <rect x="0" y="-5.5" width="20" height="11" rx="2.5" transform="rotate(-37, 0, 0) translate(131, 0)"/>
      <rect x="0" y="-5.5" width="20" height="11" rx="2.5" transform="rotate(-12, 0, 0) translate(131, 0)"/>
      <rect x="0" y="-5.5" width="20" height="11" rx="2.5" transform="rotate(13, 0, 0) translate(131, 0)"/>
      <rect x="0" y="-5.5" width="20" height="11" rx="2.5" transform="rotate(38, 0, 0) translate(131, 0)"/>
    </g>
    <g>
      <line x1="18" y1="-34" x2="86" y2="-34" stroke="#c9a84c" stroke-width="4.5" stroke-linecap="round"/>
      <circle cx="86" cy="-34" r="7" fill="#c9a84c"/><circle cx="18" cy="-34" r="4" fill="#c9a84c"/>
      <line x1="4" y1="-4" x2="96" y2="-4" stroke="#c9a84c" stroke-width="4.5" stroke-linecap="round"/>
      <circle cx="96" cy="-4" r="7" fill="#c9a84c"/><circle cx="4" cy="-4" r="4" fill="#c9a84c"/>
      <line x1="22" y1="26" x2="78" y2="26" stroke="#c9a84c" stroke-width="4.5" stroke-linecap="round"/>
      <circle cx="78" cy="26" r="7" fill="#c9a84c"/><circle cx="22" cy="26" r="4" fill="#c9a84c"/>
    </g>
  </g>
</svg>
